<svg width="40" height="40" viewBox="0 0 40 40" fill="none" xmlns="http://www.w3.org/2000/svg">
<path d="M24.9095 2.08337C22.6303 2.08334 20.793 2.08331 19.3482 2.27757C17.848 2.47927 16.5848 2.91076 15.5816 3.91396C14.7067 4.78884 14.2646 5.86398 14.0326 7.12729C13.8071 8.35489 13.764 9.85721 13.7539 11.6598C13.7501 12.3501 14.3066 12.9128 14.997 12.9167C15.6873 12.9205 16.2501 12.364 16.2539 11.6737C16.264 9.85118 16.3114 8.55937 16.4915 7.57896C16.665 6.63427 16.9437 6.08747 17.3493 5.68172C17.8107 5.22046 18.4583 4.91971 19.6812 4.75529C20.9402 4.58602 22.6087 4.58337 25.001 4.58337H26.6677C29.06 4.58337 30.7285 4.58602 31.9875 4.75529C33.2105 4.91971 33.858 5.22046 34.3193 5.68172C34.7807 6.14299 35.0813 6.79062 35.2458 8.01357C35.415 9.27249 35.4177 10.941 35.4177 13.3334V26.6667C35.4177 29.059 35.415 30.7275 35.2458 31.9865C35.0813 33.2095 34.7807 33.857 34.3193 34.3184C33.858 34.7797 33.2105 35.0804 31.9875 35.2449C30.7285 35.414 29.06 35.4167 26.6677 35.4167H25.001C22.6087 35.4167 20.9402 35.414 19.6812 35.2449C18.4583 35.0804 17.8107 34.7797 17.3493 34.3184C16.9437 33.9125 16.665 33.3659 16.4915 32.4212C16.3114 31.4407 16.264 30.1489 16.2539 28.3264C16.2501 27.636 15.6873 27.0795 14.997 27.0834C14.3066 27.0872 13.7501 27.65 13.7539 28.3404C13.764 30.1429 13.8071 31.6452 14.0326 32.8727C14.2646 34.136 14.7067 35.2112 15.5816 36.0862C16.5848 37.0894 17.848 37.5209 19.3482 37.7225C20.793 37.9167 22.6303 37.9167 24.9095 37.9167H26.7592C29.0385 37.9167 30.8757 37.9167 32.3207 37.7225C33.8208 37.5209 35.0838 37.0894 36.0872 36.0862C37.0903 35.0829 37.5218 33.8199 37.7235 32.3197C37.9178 30.8747 37.9177 29.0375 37.9177 26.7582V13.2419C37.9177 10.9626 37.9178 9.12541 37.7235 7.68046C37.5218 6.18028 37.0903 4.91716 36.0872 3.91396C35.0838 2.91076 33.8208 2.47927 32.3207 2.27757C30.8757 2.08331 29.0385 2.08334 26.7592 2.08337H24.9095Z" fill="#EFE3CD"/>
<path d="M3.33594 18.7484C2.64557 18.7484 2.08594 19.3081 2.08594 19.9984C2.08594 20.6887 2.64557 21.2484 3.33594 21.2484H23.2901L20.0225 24.0494C19.4983 24.4986 19.4376 25.2877 19.8868 25.8119C20.3361 26.3361 21.1253 26.3967 21.6495 25.9476L27.4828 20.9476C27.7598 20.7101 27.9193 20.3634 27.9193 19.9984C27.9193 19.6336 27.7598 19.2869 27.4828 19.0494L21.6495 14.0494C21.1253 13.6001 20.3361 13.6608 19.8868 14.1849C19.4376 14.7091 19.4983 15.4982 20.0225 15.9475L23.2901 18.7484H3.33594Z" fill="#EFE3CD"/>
</svg>
